/vscmnt/brussel_pixiu_data/_data_brussel/112/vsc11236/PredSimResults/SUBJ09mtu3D/weighted-expIG/worker_01.mot
version=1
nRows=9
nColumns=50
inDegrees=yes
endheader
                time	         pelvis_tilt	         pelvis_list	     pelvis_rotation	           pelvis_tx	           pelvis_ty	           pelvis_tz	       hip_flexion_r	     hip_adduction_r	      hip_rotation_r	        knee_angle_r	       ankle_angle_r	         mtp_angle_r	       hip_flexion_l	     hip_adduction_l	      hip_rotation_l	        knee_angle_l	       ankle_angle_l	         mtp_angle_l	    lumbar_extension	      lumbar_bending	     lumbar_rotation	 ercspn_r/activation	 intobl_r/activation	 extobl_r/activation	    abd_r/activation	    add_r/activation	hamstrings_r/activation	bifemsh_r/activation	glut_max_r/activation	iliopsoas_r/activation	rect_fem_r/activation	  vasti_r/activation	gastroc_r/activation	 soleus_r/activation	tib_ant_r/activation	 ercspn_l/activation	 intobl_l/activation	 extobl_l/activation	    abd_l/activation	    add_l/activation	hamstrings_l/activation	bifemsh_l/activation	glut_max_l/activation	iliopsoas_l/activation	rect_fem_l/activation	  vasti_l/activation	gastroc_l/activation	 soleus_l/activation	tib_ant_l/activation	
          1.90805933	         -7.71151056	          4.76896629	         -7.25786365	          2.27059061	          0.98158044	          0.01129587	        -10.67758066	         -5.08401384	          4.72915812	         -7.23632845	         10.38249139	         27.96646563	         31.23378592	          1.75020677	         -4.85167365	         -2.06342838	          6.51105627	          0.21296503	         -0.43328607	         -3.21656803	          3.72903142	          0.04380353	          0.00999999	          0.00999999	          0.05166974	          0.00999999	          0.01880018	          0.12565011	          0.03841797	          0.44335755	          0.01212005	          0.01211526	          0.31477923	          0.27305475	          0.01468959	          0.09303922	          0.13582544	          0.03249612	          0.02047049	          0.07178248	          0.11616194	          0.23275112	          0.01055215	          0.10571454	          0.00999999	          0.00999999	          0.01188138	          0.00999999	          0.26724110	
          1.92077973	         -7.79750043	          4.70343559	         -7.27507484	          2.28888632	          0.97955095	          0.01109175	        -10.82119601	         -5.04254494	          4.38338423	         -8.77693315	          9.64707744	         30.01016893	         31.22591031	          1.83663647	         -4.72531279	         -3.57061519	          6.06838920	          0.21635501	         -0.13413206	         -3.52676464	          3.84678410	          0.08066211	          0.00999999	          0.00999999	          0.04263157	          0.02614430	          0.02033573	          0.10367114	          0.03169783	          0.43693283	          0.00999999	          0.01892893	          0.28760955	          0.25421896	          0.01212005	          0.07676461	          0.11206658	          0.02681183	          0.01688975	          0.09377954	          0.09975245	          0.19203783	          0.07366998	          0.08722274	          0.00999999	          0.00999999	          0.02250032	          0.01579711	          0.28010789	
          1.93350013	         -7.86327831	          4.63653085	         -7.24342805	          2.30756200	          0.97777449	          0.01081247	        -10.83483200	         -4.99153963	          4.00815209	        -10.61480448	          8.74092876	         32.09356839	         31.05224476	          1.91539631	         -4.59568407	         -5.03401334	          5.58758440	          0.20302133	          0.18327089	         -3.84668019	          3.93461694	          0.07840351	          0.00999999	          0.00999999	          0.03517437	          0.02157109	          0.01677857	          0.08553678	          0.02615318	          0.41936599	          0.01000006	          0.01780387	          0.24114908	          0.21837986	          0.00999999	          0.06573257	          0.09246367	          0.02212185	          0.07636363	          0.07919624	          0.08710352	          0.15844619	          0.11554232	          0.07196557	          0.00999999	          0.00999999	          0.01856452	          0.01303384	          0.33307183	
          1.94622052	         -7.91196809	          4.56390504	         -7.16403266	          2.32626563	          0.97651080	          0.01044378	        -10.60153604	         -4.92173103	          3.61860541	        -12.90680691	          7.64373754	         34.13327473	         30.75945406	          2.00605601	         -4.48614904	         -6.27554790	          4.93221836	          0.17972349	          0.48177829	         -4.16983497	          3.98808912	          0.11734899	          0.00999999	          0.00999999	          0.02902160	          0.03061681	          0.01676402	          0.07057452	          0.02157841	          0.39824279	          0.00999999	          0.01468959	          0.19896681	          0.18018042	          0.00999999	          0.06905942	          0.07628974	          0.01825225	          0.13127618	          0.10460850	          0.07255307	          0.13073047	          0.16403958	          0.05937721	          0.00999999	          0.00999999	          0.01531718	          0.01075394	          0.36643048	
          1.95894092	         -7.94267154	          4.49128321	         -7.04094369	          2.34474283	          0.97592518	          0.00999502	        -10.03664479	         -4.83762906	          3.22114050	        -15.76634278	          6.35334416	         35.95766567	         30.43061179	          2.11539072	         -4.37853438	         -7.49354157	          4.44412030	          0.14948547	          0.73932311	         -4.50222313	          4.00610208	          0.14835972	          0.00999999	          0.00999999	          0.02394508	          0.04962023	          0.01725254	          0.05822948	          0.01780387	          0.35903225	          0.00999999	          0.01212005	          0.16416314	          0.14866291	          0.00999999	          0.06902354	          0.06294499	          0.01505953	          0.16245342	          0.11947132	          0.06020296	          0.10786284	          0.19044345	          0.04899083	          0.00999999	          0.02951760	          0.01263787	          0.00999999	          0.39129567	
          1.97166131	         -7.95471608	          4.41173771	         -6.87570569	          2.36285868	          0.97608665	          0.00948619	         -9.10935629	         -4.73539019	          2.81356432	        -19.21953835	          4.90316309	         37.23234368	         30.07073775	          2.23361403	         -4.26478754	         -8.69328672	          4.16889278	          0.12594769	          0.94638440	         -4.83514471	          3.98685989	          0.16050440	          0.00999999	          0.00999999	          0.01975656	          0.06494654	          0.01468959	          0.04804387	          0.01468959	          0.29622962	          0.00999999	          0.00999999	          0.13544740	          0.12265850	          0.00999999	          0.06176608	          0.05193453	          0.01242529	          0.16919126	          0.09857317	          0.05315890	          0.08899526	          0.19348543	          0.04042126	          0.00999999	          0.09165010	          0.01042723	          0.00999999	          0.39529829	
          1.98438171	         -7.94984923	          4.31198973	         -6.67079583	          2.38054347	          0.97705069	          0.00895597	         -7.83080273	         -4.60879742	          2.39122697	        -23.21621053	          3.34175828	         37.54498089	         29.62276110	          2.34767210	         -4.13030251	         -9.75144212	          4.05417782	          0.10479590	          1.09938387	         -5.15440570	          3.93039799	          0.17314287	          0.00999999	          0.00999999	          0.01630071	          0.07668429	          0.01212005	          0.05308332	          0.01212005	          0.24441254	          0.00999999	          0.00999999	          0.11175467	          0.10120283	          0.00999999	          0.05096184	          0.04285004	          0.01025183	          0.16476121	          0.08133055	          0.04900736	          0.07342803	          0.18313172	          0.03335069	          0.00999999	          0.14984143	          0.00999999	          0.00999999	          0.39041221	
          1.99710210	         -7.93069178	          4.17963063	         -6.42521674	          2.39780193	          0.97881286	          0.00843641	         -6.25066628	         -4.45185200	          1.96628414	        -27.60384098	          1.53708244	         36.86747352	         29.01796943	          2.44790656	         -3.95823824	        -10.54042946	          4.07872340	          0.09095138	          1.20258629	         -5.44612684	          3.83491016	          0.17186877	          0.00999999	          0.00999999	          0.01344935	          0.09178347	          0.00999999	          0.06958271	          0.00999999	          0.20165942	          0.00999999	          0.00999999	          0.09220632	          0.08350023	          0.02600111	          0.04204749	          0.03535462	          0.00999999	          0.15653306	          0.06710405	          0.04614853	          0.06058385	          0.16419293	          0.02751692	          0.00999999	          0.18419457	          0.00999999	          0.00999999	          0.37748817	
          2.00982250	         -7.89970556	          4.00275049	         -6.13881888	          2.41464238	          0.98124394	          0.00795672	         -4.43168616	         -4.25299275	          1.55960035	        -32.23500796	         -0.40648211	         34.94109252	         28.22968643	          2.52107823	         -3.72859474	        -11.00406532	          4.19396596	          0.08490766	          1.25867415	         -5.69732978	          3.69985547	          0.17512225	          0.00999999	          0.03470044	          0.01109677	          0.09281757	          0.00999999	          0.05741117	          0.00999999	          0.16638475	          0.00999999	          0.00999999	          0.07607741	          0.06889420	          0.08455760	          0.03469246	          0.02917032	          0.00999999	          0.15235855	          0.05536608	          0.04320844	          0.04998641	          0.13547198	          0.02270361	          0.00999999	          0.18955616	          0.00999999	          0.00999999	          0.35992327	
